<svg width="24" height="24" viewBox="0 0 24 24" fill="none" xmlns="http://www.w3.org/2000/svg">
<path fill-rule="evenodd" clip-rule="evenodd" d="M8.33333 22.0834C9.34585 22.0834 10.1667 21.2625 10.1667 20.25C10.1667 19.2375 9.34585 18.4167 8.33333 18.4167C7.32081 18.4167 6.5 19.2375 6.5 20.25C6.5 21.2625 7.32081 22.0834 8.33333 22.0834Z" stroke="#212121" stroke-width="2" stroke-linecap="round" stroke-linejoin="round"/>
<path fill-rule="evenodd" clip-rule="evenodd" d="M19.3333 22.0834C20.3459 22.0834 21.1667 21.2625 21.1667 20.25C21.1667 19.2375 20.3459 18.4167 19.3333 18.4167C18.3208 18.4167 17.5 19.2375 17.5 20.25C17.5 21.2625 18.3208 22.0834 19.3333 22.0834Z" stroke="#212121" stroke-width="2" stroke-linecap="round" stroke-linejoin="round"/>
<path d="M6.19746 6.50002H22.0833L20.5433 14.1909C20.3703 15.0619 19.5979 15.6837 18.71 15.6667H9.02079C8.09448 15.6745 7.30785 14.9902 7.18746 14.0717L5.79413 3.51169C5.67461 2.60015 4.89846 1.91808 3.97913 1.91669H1.91663" stroke="#212121" stroke-width="2" stroke-linecap="round" stroke-linejoin="round"/>
</svg>
